<svg width="112" height="102" viewBox="0 0 112 102" fill="none" xmlns="http://www.w3.org/2000/svg">
<path d="M41.9316 16.7185C43.5968 16.4955 45.2946 16.3781 47.0198 16.3781C52.5311 16.3781 57.7726 17.5563 62.5066 19.6692C64.6189 17.2626 66.8493 15.0761 69.2434 13.067C62.6218 9.49979 55.0535 7.47354 47.0198 7.47354C44.5949 7.47354 42.2122 7.6589 39.8843 8.01362C40.7859 11.1839 41.4195 13.98 41.9316 16.7191V16.7185Z" fill="#FF1F18"/>
<path d="M83.1428 42.3234C84.4345 46.1467 85.1348 50.2397 85.1348 54.4929C85.1348 75.5093 68.0363 92.6072 47.0205 92.6072C26.0036 92.6072 8.90513 75.5087 8.90513 54.4929C8.90513 47.8598 10.6103 41.6174 13.6026 36.1797C13.5364 35.6972 13.4714 35.229 13.4064 34.7819C13.3209 34.1854 13.2228 33.4879 13.115 32.7186C12.7563 30.1631 12.2652 26.6633 11.7326 23.4542C4.434 31.7417 1.52588e-05 42.6086 1.52588e-05 54.4929C1.52588e-05 80.4195 21.0934 101.512 47.0205 101.512C72.9471 101.512 94.0398 80.4195 94.0398 54.4929C94.0398 48.502 92.9118 42.7711 90.8605 37.4971C88.1755 39.0351 85.5671 40.5903 83.1428 42.3229V42.3234Z" fill="#FF3600"/>
<path d="M56.6018 80.6596C64.2101 73.4004 63.1864 64.5677 68.416 53.2206C75.771 37.2616 92.224 34.052 104.555 23.8871C110.417 19.0562 115.427 11.5968 108.977 6.58278C106.413 4.59018 103.325 3.79122 100.036 3.79122C92.7081 3.79122 84.391 7.75873 78.6898 11.3219C61.8064 21.874 55.824 36.6257 46.8396 53.6888C46.0372 55.2132 45.5873 56.7701 44.6913 57.9409C42.5813 50.3686 41.0905 38.754 40.0354 31.7349C38.6348 22.4186 38.1661 16.9535 35.7686 8.6752C34.1284 3.84655 29.7822 0.729889 24.7557 0.729889C23.7827 0.729889 22.783 0.846816 21.7725 1.09033C15.9897 3.71253 12.321 8.46018 14.369 15.6812C15.5905 19.9858 16.8742 29.8142 17.5038 34.1929C19.7069 49.508 22.3177 83.3109 40.6115 87.1073C40.6143 87.1079 40.6171 87.1079 40.62 87.1079C40.6662 87.1079 40.7312 87.04 40.7752 87.04C40.8082 87.04 40.8282 87.0788 40.819 87.214C47.0894 85.5339 51.4612 85.5653 56.6024 80.6602L56.6018 80.6596Z" fill="#00CFFF"/>
</svg>
